<?xml version="1.0" standalone="yes"?>
<!DOCTYPE svg PUBLIC "-//W3C//DTD SVG 1.1//EN"
 "http://www.w3.org/Graphics/SVG/1.1/DTD/svg11.dtd">
<svg xmlns="http://www.w3.org/2000/svg" version="1.1"
  width="100%" height="100%" viewBox="0 0 1024 256"
  style="fill: none; stroke-width: 3; font-family: Arial;
 font: Arial;
">

<!-- Creator: NGspice -->

<rect x="0" y="0" width="1024" height="256" fill="white" stroke="none"/>
<text stroke="none" fill="black" font-size="16" x="358" y="240">
t
</text>
<text transform="rotate(-90, 20, 163)"  stroke="none" fill="black" font-size="16" x="20" y="163">
voltage
</text>
<text stroke="none" fill="black" font-size="16" x="10" y="16">
tran1: cmos and8c
</text>
<path stroke="black" stroke-width="2" d="M75 192l0 -128"/>
<text stroke="none" fill="black" font-size="16" x="60" y="216">
0.0
</text>
<path stroke="black" stroke-width="2" stroke-dasharray="1,2" d="M224 192l0 -128"/>
<text stroke="none" fill="black" font-size="16" x="209" y="216">
0.5
</text>
<path stroke="black" stroke-width="2" stroke-dasharray="1,2" d="M373 192l0 -128"/>
<text stroke="none" fill="black" font-size="16" x="358" y="216">
1.0
</text>
<path stroke="black" stroke-width="2" stroke-dasharray="1,2" d="M522 192l0 -128"/>
<text stroke="none" fill="black" font-size="16" x="507" y="216">
1.5
</text>
<path stroke="black" stroke-width="2" stroke-dasharray="1,2" d="M671 192l0 -128"/>
<text stroke="none" fill="black" font-size="16" x="656" y="216">
2.0
</text>
<path stroke="black" stroke-width="2" stroke-dasharray="1,2" d="M820 192l0 -128"/>
<text stroke="none" fill="black" font-size="16" x="805" y="216">
2.5
</text>
<path stroke="black" stroke-width="2" stroke-dasharray="1,2" d="M969 192l0 -128"/>
<text stroke="none" fill="black" font-size="16" x="954" y="216">
3.0
</text>
<text stroke="none" fill="black" font-size="16" x="614" y="240">
ns
</text>
<path stroke="black" stroke-width="2" stroke-dasharray="1,2" d="M75 192l894 0"/>
<text stroke="none" fill="black" font-size="16" x="33" y="200">
-0.2
</text>
<path stroke="black" stroke-width="2" stroke-dasharray="1,2" d="M75 128l894 0"/>
<text stroke="none" fill="black" font-size="16" x="43" y="136">
0.5
</text>
<path stroke="black" stroke-width="2" stroke-dasharray="1,2" d="M75 64l894 0"/>
<text stroke="none" fill="black" font-size="16" x="43" y="72">
1.2
</text>
<text stroke="none" fill="black" font-size="16" x="10" y="32">
V
</text>
<path stroke="red" d="M447 23l44 0"/>
<text stroke="none" fill="black" font-size="16" x="501" y="32">
in1
</text>
<path stroke="red" d="M75 174l296 0 1 1 3 0 2 1 1 0 2 1 1 1 2 0 1 1 2 1 4 4 2 0 1 -4 2 -7 1 -9 2 -10 1 -10 2 -10 1 -9 1 -5 0 -2 1 -3 1 -5 2 -5 1 -4 3 -6 1 -3 2 -2 1 -2 2 -1 1 -1 2 -1 1 0 2 -1 1 0 2 -1 9 0 1 -1 533 0"/>
<path stroke="blue" d="M75 23l44 0"/>
<text stroke="none" fill="black" font-size="16" x="129" y="32">
out
</text>
<path stroke="blue" d="M75 174l333 0 2 -2 1 -4 1 -7 2 -6 1 -7 2 -6 1 -6 2 -5 1 -6 2 -5 1 -6 2 -4 1 -4 2 -4 1 -4 2 -2 1 -3 2 -2 1 -2 2 -1 1 -1 2 -1 1 -1 2 0 1 -1 2 0 1 -1 11 0 1 -1 264 0 1 3 2 4 1 6 2 6 1 6 2 6 1 6 2 5 1 6 2 5 1 5 2 4 1 4 2 4"/>
<path stroke="blue" d="M745 152l1 4 2 2 1 3 2 2 1 2 2 1 1 2 2 1 1 1 2 0 1 1 2 0 1 1 3 0 2 1 13 0 1 1 186 0"/>
<path stroke="green" d="M447 39l44 0"/>
<text stroke="none" fill="black" font-size="16" x="501" y="48">
in8
</text>
<path stroke="green" d="M75 174l296 0 1 1 3 0 2 1 1 0 2 1 1 1 2 0 1 1 2 1 4 4 2 0 1 -4 2 -7 1 -9 2 -9 1 -10 2 -10 1 -10 1 -4 0 -3 1 -3 1 -5 2 -6 1 -4 2 -4 1 -3 1 -2 3 -3 2 -1 1 -1 2 -1 1 -1 3 0 2 -1 9 0 1 -1 206 0M642 83l0 -1M642 83l9 0 1 -1"/>
<path stroke="green" d="M652 82l30 0 2 -1 3 0 1 -1 2 0 1 -1 2 0 1 -1 3 0 2 -1 6 0 1 2 2 3 1 3 1 4 2 6 1 9 2 11 1 12 2 14 1 13 2 10 1 4 3 3 3 0 2 1 7 0 2 1 37 0 2 1 191 0"/>
</svg>
